<svg width="27" height="27" viewBox="0 0 27 27" fill="none" xmlns="http://www.w3.org/2000/svg">
<circle cx="13.5" cy="13.5" r="13.5" fill="white"/>
<path d="M16.4844 8.43505L18.8333 11.0781C18.9323 11.1895 18.9323 11.3712 18.8333 11.4825L13.1458 17.8822L10.7292 18.184C10.4063 18.225 10.1328 17.9174 10.1693 17.554L10.4375 14.8347L16.125 8.43505C16.224 8.3237 16.3854 8.3237 16.4844 8.43505ZM20.7031 7.76402L19.4323 6.33405C19.0365 5.88865 18.3932 5.88865 17.9948 6.33405L17.0729 7.37136C16.974 7.48271 16.974 7.66439 17.0729 7.77574L19.4219 10.4188C19.5208 10.5302 19.6823 10.5302 19.7813 10.4188L20.7031 9.38152C21.099 8.93319 21.099 8.20942 20.7031 7.76402ZM16 16.1416V19.1246H7.66667V9.7478H13.651C13.7344 9.7478 13.8125 9.70971 13.8724 9.64524L14.9141 8.47314C15.112 8.25044 14.9714 7.87244 14.6927 7.87244H7.25C6.5599 7.87244 6 8.50244 6 9.27896V19.5935C6 20.37 6.5599 21 7.25 21H16.4167C17.1068 21 17.6667 20.37 17.6667 19.5935V14.9695C17.6667 14.656 17.3307 14.5007 17.1328 14.7205L16.0911 15.8926C16.0339 15.96 16 16.0479 16 16.1416Z" fill="#FFAF87"/>
</svg>
