<svg width="17" height="12" viewBox="0 0 17 12" fill="none" xmlns="http://www.w3.org/2000/svg">
<path d="M16.7731 5.19727C15.1843 2.09737 12.039 0 8.4375 0C4.83603 0 1.68983 2.09883 0.101937 5.19757C0.0349182 5.33014 0 5.47661 0 5.62516C0 5.77371 0.0349182 5.92017 0.101937 6.05275C1.69071 9.15265 4.83603 11.25 8.4375 11.25C12.039 11.25 15.1852 9.15119 16.7731 6.05245C16.8401 5.91988 16.875 5.77341 16.875 5.62486C16.875 5.47631 16.8401 5.32985 16.7731 5.19727ZM8.4375 9.84377C7.60311 9.84377 6.78745 9.59634 6.09368 9.13278C5.39991 8.66922 4.85918 8.01034 4.53988 7.23946C4.22057 6.46858 4.13702 5.62033 4.2998 4.80197C4.46259 3.98361 4.86438 3.2319 5.45439 2.6419C6.04439 2.05189 6.7961 1.6501 7.61446 1.48731C8.43282 1.32453 9.28107 1.40808 10.0519 1.72739C10.8228 2.04669 11.4817 2.58742 11.9453 3.28119C12.4088 3.97496 12.6563 4.79062 12.6563 5.62501C12.6565 6.1791 12.5476 6.72781 12.3357 7.23978C12.1238 7.75174 11.813 8.21692 11.4212 8.60872C11.0294 9.00053 10.5642 9.31127 10.0523 9.52318C9.5403 9.7351 8.99159 9.84404 8.4375 9.84377ZM8.4375 2.81251C8.18646 2.81601 7.93705 2.85336 7.69599 2.92354C7.89469 3.19356 7.99004 3.52585 7.96475 3.86015C7.93946 4.19444 7.79521 4.50861 7.55815 4.74566C7.32109 4.98272 7.00693 5.12697 6.67264 5.15226C6.33834 5.17755 6.00605 5.0822 5.73603 4.88351C5.58227 5.44999 5.61003 6.05042 5.81539 6.60031C6.02075 7.15019 6.39339 7.62182 6.88084 7.94883C7.36829 8.27584 7.94602 8.44175 8.5327 8.42322C9.11939 8.40468 9.68549 8.20264 10.1513 7.84552C10.6172 7.48839 10.9593 6.99418 11.1295 6.43243C11.2998 5.87068 11.2896 5.26969 11.1004 4.71404C10.9112 4.1584 10.5525 3.67607 10.0748 3.33496C9.59711 2.99385 9.02448 2.81112 8.4375 2.81251Z" fill="#FFAF87"/>
</svg>
