<svg width="9" height="10" viewBox="0 0 9 10" fill="none" xmlns="http://www.w3.org/2000/svg">
<mask id="path-1-inside-1_139_420" fill="white">
<path d="M3.49405 9.22656V0.379971H5.50115V9.22656H3.49405ZM0.0743075 5.80682V3.79972H8.9209V5.80682H0.0743075Z"/>
</mask>
<path d="M3.49405 9.22656V0.379971H5.50115V9.22656H3.49405ZM0.0743075 5.80682V3.79972H8.9209V5.80682H0.0743075Z" fill="#FFAF87"/>
<path d="M3.49405 9.22656H-7.50595V20.2266H3.49405V9.22656ZM3.49405 0.379971V-10.62H-7.50595V0.379971H3.49405ZM5.50115 0.379971H16.5012V-10.62H5.50115V0.379971ZM5.50115 9.22656V20.2266H16.5012V9.22656H5.50115ZM0.0743075 5.80682H-10.9257V16.8068H0.0743075V5.80682ZM0.0743075 3.79972V-7.20028H-10.9257V3.79972H0.0743075ZM8.9209 3.79972H19.9209V-7.20028H8.9209V3.79972ZM8.9209 5.80682V16.8068H19.9209V5.80682H8.9209ZM14.4941 9.22656V0.379971H-7.50595V9.22656H14.4941ZM3.49405 11.38H5.50115V-10.62H3.49405V11.38ZM-5.49885 0.379971V9.22656H16.5012V0.379971H-5.49885ZM5.50115 -1.77344H3.49405V20.2266H5.50115V-1.77344ZM11.0743 5.80682V3.79972H-10.9257V5.80682H11.0743ZM0.0743075 14.7997H8.9209V-7.20028H0.0743075V14.7997ZM-2.0791 3.79972V5.80682H19.9209V3.79972H-2.0791ZM8.9209 -5.19318H0.0743075V16.8068H8.9209V-5.19318Z" fill="#FFAF87" mask="url(#path-1-inside-1_139_420)"/>
</svg>
