<svg width="15" height="14" viewBox="0 0 15 14" fill="none" xmlns="http://www.w3.org/2000/svg">
<path d="M10.4844 2.16406L12.8333 4.51302C12.9323 4.61198 12.9323 4.77344 12.8333 4.8724L7.14583 10.5599L4.72917 10.8281C4.40625 10.8646 4.13281 10.5911 4.16927 10.2682L4.4375 7.85156L10.125 2.16406C10.224 2.0651 10.3854 2.0651 10.4844 2.16406ZM14.7031 1.56771L13.4323 0.296875C13.0365 -0.0989583 12.3932 -0.0989583 11.9948 0.296875L11.0729 1.21875C10.974 1.31771 10.974 1.47917 11.0729 1.57813L13.4219 3.92708C13.5208 4.02604 13.6823 4.02604 13.7813 3.92708L14.7031 3.00521C15.099 2.60677 15.099 1.96354 14.7031 1.56771ZM10 9.01302V11.6641H1.66667V3.33073H7.65104C7.73437 3.33073 7.8125 3.29688 7.8724 3.23958L8.91406 2.19792C9.11198 2 8.97135 1.66406 8.69271 1.66406H1.25C0.559896 1.66406 0 2.22396 0 2.91406V12.0807C0 12.7708 0.559896 13.3307 1.25 13.3307H10.4167C11.1068 13.3307 11.6667 12.7708 11.6667 12.0807V7.97135C11.6667 7.69271 11.3307 7.55469 11.1328 7.75L10.0911 8.79167C10.0339 8.85156 10 8.92969 10 9.01302Z" fill="#FFAF87"/>
</svg>
