<svg width="15" height="10" viewBox="0 0 15 10" fill="none" xmlns="http://www.w3.org/2000/svg">
<path d="M14.9094 4.6198C13.4971 1.86433 10.7013 0 7.5 0C4.29869 0 1.50207 1.86563 0.0906109 4.62006C0.0310384 4.7379 0 4.8681 0 5.00014C0 5.13218 0.0310384 5.26238 0.0906109 5.38022C1.50285 8.13569 4.29869 10 7.5 10C10.7013 10 13.4979 8.13439 14.9094 5.37996C14.969 5.26212 15 5.13192 15 4.99988C15 4.86784 14.969 4.73764 14.9094 4.6198ZM7.5 8.75002C6.75832 8.75002 6.03329 8.53008 5.41661 8.11803C4.79992 7.70597 4.31927 7.1203 4.03545 6.43508C3.75162 5.74985 3.67735 4.99585 3.82205 4.26842C3.96674 3.54099 4.3239 2.8728 4.84834 2.34835C5.37279 1.82391 6.04098 1.46675 6.76841 1.32206C7.49584 1.17736 8.24984 1.25163 8.93507 1.53545C9.62029 1.81928 10.206 2.29993 10.618 2.91662C11.0301 3.5333 11.25 4.25833 11.25 5.00001C11.2502 5.49253 11.1534 5.98028 10.965 6.43536C10.7767 6.89044 10.5005 7.30393 10.1522 7.6522C9.80392 8.00047 9.39043 8.27668 8.93535 8.46505C8.48027 8.65342 7.99253 8.75026 7.5 8.75002ZM7.5 2.5C7.27686 2.50312 7.05515 2.53632 6.84088 2.5987C7.0175 2.83872 7.10226 3.13409 7.07978 3.43124C7.0573 3.72839 6.92908 4.00765 6.71836 4.21837C6.50764 4.42909 6.22838 4.55731 5.93123 4.57979C5.63408 4.60227 5.33871 4.51751 5.09869 4.34089C4.96202 4.84443 4.98669 5.37816 5.16924 5.86694C5.35178 6.35572 5.68301 6.77495 6.1163 7.06563C6.54959 7.3563 7.06313 7.50378 7.58463 7.48731C8.10613 7.47083 8.60933 7.29123 9.02341 6.97379C9.43749 6.65635 9.7416 6.21705 9.89293 5.71772C10.0443 5.21839 10.0352 4.68417 9.86701 4.19026C9.69882 3.69635 9.37999 3.26762 8.95538 2.96441C8.53076 2.6612 8.02176 2.49878 7.5 2.5Z" fill="#FFAF87"/>
</svg>
